<?xml version="1.0" standalone="no"?>
<!DOCTYPE svg PUBLIC "-//W3C//DTD SVG 20010904//EN"
 "http://www.w3.org/TR/2001/REC-SVG-20010904/DTD/svg10.dtd">
<svg version="1.0" xmlns="http://www.w3.org/2000/svg"
 width="512.000000pt" height="512.000000pt" viewBox="0 0 512.000000 512.000000"
 preserveAspectRatio="xMidYMid meet">
<metadata>
Created by potrace 1.14, written by Peter Selinger 2001-2017
</metadata>
<g transform="translate(0.000000,512.000000) scale(0.100000,-0.100000)"
fill="#000000" stroke="none">
<path d="M0 2560 l0 -2560 2560 0 2560 0 0 2560 0 2560 -2560 0 -2560 0 0
-2560z m1750 857 c0 -6 -50 -294 -55 -314 -5 -20 -12 -23 -51 -23 -60 0 -100
-22 -124 -70 -11 -21 -20 -42 -20 -45 0 -3 38 -5 85 -5 74 0 85 -2 85 -17 0
-10 -11 -81 -25 -157 -14 -77 -25 -141 -25 -143 0 -2 -38 -3 -84 -3 -47 0 -87
-4 -90 -9 -3 -5 -35 -175 -71 -377 -35 -203 -67 -379 -70 -391 -5 -23 -6 -23
-200 -23 -150 0 -195 3 -195 13 1 6 31 183 69 392 37 209 66 383 64 388 -2 4
-29 7 -59 7 -30 0 -54 3 -54 8 0 4 12 75 26 159 l27 152 60 3 60 3 18 64 c71
251 265 386 557 390 39 1 72 0 72 -2z m637 -469 c36 -13 67 -35 101 -73 l49
-53 12 69 13 69 194 0 c107 0 194 -3 194 -7 0 -5 -43 -257 -97 -560 l-97 -553
-197 0 -197 0 8 38 c18 84 21 118 9 99 -23 -38 -132 -107 -201 -128 -101 -31
-241 -25 -320 14 -157 77 -234 258 -208 490 23 200 122 394 254 500 66 52 176
104 246 116 72 12 172 4 237 -21z m1131 -105 c36 -365 66 -623 72 -616 4 4 80
171 171 370 l164 362 208 1 c133 0 207 -4 205 -10 -1 -5 -131 -257 -288 -559
l-285 -550 -246 -1 -246 0 -92 553 c-50 303 -91 555 -91 560 0 4 94 7 208 7
l208 0 12 -117z"/>
<path d="M2205 2611 c-93 -43 -149 -141 -149 -263 -1 -82 11 -110 66 -151 59
-44 177 -30 247 29 85 73 125 228 82 316 -39 82 -151 113 -246 69z"/>
</g>
</svg>
